<svg width="24" height="24" viewBox="0 0 24 24" fill="none" xmlns="http://www.w3.org/2000/svg">
<path d="M20.3929 17.0526C20.2572 17.0526 20.1463 16.964 20.1093 16.8248C19.1845 13.1045 17.2486 11.6367 17.2239 11.624C17.0883 11.5228 17.0636 11.333 17.15 11.2065C17.2486 11.0673 17.4336 11.042 17.5569 11.1305C17.6432 11.1938 19.69 12.7123 20.6765 16.673C20.7135 16.8375 20.6271 17.002 20.4669 17.0399C20.4422 17.0526 20.4175 17.0526 20.3929 17.0526Z" fill="url(#paint0_linear_6973_112402)"/>
<path d="M17.7916 17.0527C17.6682 17.0527 17.5573 16.9641 17.5326 16.8376C17.0517 14.9016 16.1516 13.6488 15.4858 12.9402C14.7706 12.181 14.1541 11.8646 14.1417 11.8646C14.0061 11.8013 13.9568 11.6368 14.0184 11.4976C14.0801 11.3584 14.2404 11.2952 14.376 11.3711C14.487 11.4217 17.0517 12.7251 18.0505 16.6984C18.0875 16.8503 18.0012 17.0021 17.8532 17.0401C17.8285 17.0401 17.8039 17.0527 17.7916 17.0527Z" fill="url(#paint1_linear_6973_112402)"/>
<path d="M18.5687 21.2918C18.803 21.3044 19.0373 21.2411 19.2222 21.102C19.4072 20.9628 19.5058 21.1652 19.5428 20.9374C19.6045 20.5325 19.7031 19.71 19.7648 19.2798C19.9991 17.736 20.6526 13.3451 20.6772 13.1553C20.3936 13.1679 12.3542 13.5096 12.2185 13.5096C11.9966 13.5222 11.787 13.5602 11.5774 13.6235C11.3431 13.6994 11.1211 13.8133 10.9238 13.9525C10.1717 14.4713 9.70312 15.3444 9.70312 16.3061C9.70312 17.5715 9.70312 18.7863 9.70312 19.9251C9.70312 19.9757 9.70312 20.0137 9.71546 20.0643C9.77711 20.3807 10.036 20.6211 10.3443 20.6464C10.8745 20.697 17.2 21.2032 18.5687 21.2918Z" fill="url(#paint2_linear_6973_112402)"/>
<path d="M18.0761 21.0767C18.1994 21.1906 18.3473 21.2539 18.52 21.2792C18.6309 21.2919 18.7543 21.2792 18.8652 21.2792C19.5434 21.2412 18.594 21.2919 19.2598 21.2539C19.8517 21.2159 21.9972 21.0767 22.552 21.0388C22.6383 21.0388 22.7247 21.0261 22.811 21.0135C23.0083 20.9882 23.1809 20.8869 23.3165 20.7477C23.4398 20.6212 23.5138 20.4567 23.5385 20.2795C23.5508 20.2036 23.5508 20.115 23.5508 20.0391C23.5508 18.6851 23.5508 17.3438 23.5508 15.9899C23.5508 15.4837 23.4275 15.0028 23.1932 14.5979C23.0699 14.3828 22.9219 14.1803 22.7493 14.0032C22.6383 13.8893 22.515 13.7881 22.3917 13.6868C22.3301 13.6489 22.2808 13.6109 22.2191 13.573C21.8245 13.3325 21.3683 13.1933 20.8628 13.168C20.3079 13.1554 19.753 13.2946 19.2721 13.5856C19.1858 13.6362 19.1118 13.6868 19.0379 13.7501C18.9269 13.8387 18.8159 13.9273 18.7173 14.0285C18.5323 14.2183 18.372 14.4208 18.2364 14.6612C17.9898 15.0914 17.8418 15.5976 17.8418 16.1291C17.8418 17.5463 17.8418 18.9509 17.8418 20.3681C17.8418 20.4567 17.8418 20.5326 17.8541 20.6212C17.8541 20.7984 17.9528 20.9502 18.0761 21.0767Z" fill="url(#paint3_radial_6973_112402)"/>
<path d="M11.1582 16.7109H15.2642V21.0386L11.1582 20.6969V16.7109Z" fill="url(#paint4_linear_6973_112402)"/>
<path d="M11.466 20.7349C11.466 20.7222 11.466 20.6969 11.466 20.6842V16.0149C11.4536 13.8764 13.9567 12.1428 14.3513 11.8898L17.0517 11.662C17.1996 11.6493 17.3106 11.5101 17.2983 11.3583C17.2859 11.2064 17.1503 11.0926 17.0023 11.1052L14.2403 11.3456C14.2033 11.3456 14.154 11.3583 14.1293 11.3836C14.0923 11.4089 13.3155 11.8898 12.5387 12.687C11.4783 13.7752 10.9234 14.9267 10.9357 16.0149V20.6842V20.6969L11.466 20.7349Z" fill="url(#paint5_linear_6973_112402)"/>
<path d="M14.2655 12.2315C13.9573 12.2315 13.6983 11.9911 13.6737 11.6748C13.649 11.3457 13.8833 11.0421 14.2162 11.0167L16.7809 10.8016C17.1015 10.7763 17.3975 11.0167 17.4221 11.3584C17.4468 11.6874 17.2125 11.9911 16.8796 12.0164L14.3148 12.2189C14.2902 12.2315 14.2778 12.2315 14.2655 12.2315Z" fill="url(#paint6_linear_6973_112402)"/>
<path d="M17.657 11.2571C17.6077 11.1433 17.4844 11.0673 17.3611 11.08L17.0035 11.118C16.8432 11.1306 16.7199 11.2825 16.7446 11.447C16.7446 11.4976 16.7692 11.5482 16.7939 11.5988C16.165 12.358 14.9936 14.0537 15.006 15.9897V20.6717C15.006 20.7856 15.0183 20.9121 15.0553 21.026L15.7458 21.0766C15.6471 20.9627 15.5978 20.8235 15.5978 20.6717V15.9897C15.5855 13.6487 17.5707 11.6241 17.5954 11.5988C17.6817 11.5102 17.7063 11.371 17.657 11.2571Z" fill="url(#paint7_linear_6973_112402)"/>
<path d="M0.616018 21.1146C-0.382749 20.2795 0.566697 18.723 1.84906 19.419C1.33118 20.115 0.455723 20.3048 1.2572 21.3424L0.739323 21.1779C0.702332 21.1653 0.65301 21.1399 0.616018 21.1146Z" fill="url(#paint8_linear_6973_112402)"/>
<path d="M1.56541 19.3811C1.05986 19.3938 0.640625 19.862 0.640625 20.4188C0.640625 20.9755 1.04753 21.4058 1.55308 21.3931C2.05863 21.3805 2.47786 20.9123 2.47786 20.3555C2.49019 19.7987 2.08329 19.3685 1.56541 19.3811Z" fill="url(#paint9_radial_6973_112402)"/>
<path d="M1.56596 20.001C1.36867 20.0136 1.2207 20.1781 1.2207 20.3932C1.2207 20.6084 1.36867 20.7729 1.56596 20.7602C1.76324 20.7476 1.91121 20.5831 1.91121 20.3679C1.91121 20.1655 1.76324 20.001 1.56596 20.001Z" fill="url(#paint10_linear_6973_112402)"/>
<path d="M3.76055 21.8612C2.76178 21.0261 3.71123 19.4696 4.99359 20.1656C4.47572 20.8616 3.60025 21.0514 4.40173 22.089L3.88385 21.9245C3.84686 21.9118 3.79754 21.8992 3.76055 21.8612Z" fill="url(#paint11_linear_6973_112402)"/>
<path d="M4.70994 20.1277C4.20439 20.1404 3.78516 20.6086 3.78516 21.1653C3.78516 21.7221 4.19206 22.1523 4.69761 22.1397C5.20316 22.127 5.62239 21.6588 5.62239 21.1021C5.63472 20.5453 5.21549 20.1151 4.70994 20.1277Z" fill="url(#paint12_radial_6973_112402)"/>
<path d="M4.70952 20.6211C4.46291 20.6337 4.26562 20.8615 4.26562 21.1399C4.26562 21.4183 4.46291 21.6334 4.69719 21.6334C4.9438 21.6208 5.14109 21.393 5.14109 21.1146C5.14109 20.8362 4.95613 20.6211 4.70952 20.6211Z" fill="#5E5E5E"/>
<path d="M11.1094 21.6082C11.0971 21.6082 11.0971 21.5956 11.0848 21.5956C11.0724 21.5956 11.0724 21.5829 11.0601 21.5829C11.0478 21.5703 11.0354 21.5703 11.0231 21.5576L11.0108 21.545C10.9984 21.5323 10.9738 21.5196 10.9615 21.507C10.9491 21.4943 10.9368 21.4817 10.9245 21.469L10.9121 21.4564C10.8998 21.4437 10.8998 21.4311 10.8875 21.4311C10.8628 21.4058 10.8505 21.3805 10.8381 21.3551C10.8381 21.3551 10.8258 21.3425 10.8258 21.3298C10.8135 21.3172 10.8012 21.3045 10.8012 21.2792C10.8012 21.2666 10.7888 21.2539 10.7888 21.2539C10.7888 21.2413 10.7765 21.2286 10.7765 21.216C10.7765 21.2033 10.7642 21.1906 10.7642 21.178C10.7642 21.1653 10.7518 21.1653 10.7518 21.1527C10.7395 21.14 10.7395 21.1147 10.7395 21.1021V21.0894C10.7272 21.0641 10.7272 21.0514 10.7272 21.0261V21.0135C10.7272 21.0008 10.7148 20.9755 10.7148 20.9629C10.7148 20.9502 10.7148 20.9502 10.7148 20.9376C10.7148 20.9249 10.7148 20.9123 10.7148 20.8869C10.7148 20.8743 10.7148 20.8743 10.7148 20.8616C10.7148 20.8363 10.7148 20.811 10.7148 20.7984C10.7148 20.7604 10.7148 20.7351 10.7148 20.7098C10.7148 20.6971 10.7148 20.6971 10.7148 20.6845C10.7148 20.6592 10.7148 20.6339 10.7272 20.6212C10.7272 20.6086 10.7395 20.5833 10.7395 20.5706C10.7395 20.5579 10.7518 20.5453 10.7518 20.5326C10.7518 20.52 10.7518 20.52 10.7642 20.5073C10.7642 20.482 10.7765 20.4694 10.7888 20.4567C10.7888 20.4441 10.8012 20.4314 10.8012 20.4314C10.8012 20.4188 10.8135 20.4061 10.8135 20.3934C10.8258 20.3681 10.8381 20.3428 10.8505 20.3175C10.8505 20.3049 10.8628 20.3049 10.8628 20.2922C10.8875 20.2543 10.8998 20.2289 10.9245 20.2036C10.9368 20.191 10.9491 20.1657 10.9615 20.153C10.9615 20.153 10.9615 20.1404 10.9738 20.1404C10.9861 20.1151 11.0108 20.1024 11.0354 20.0771C11.0478 20.0644 11.0601 20.0518 11.0848 20.0391C11.0971 20.0265 11.0971 20.0265 11.1094 20.0138L11.1217 20.0012C11.1341 19.9885 11.1587 19.9759 11.1711 19.9632C11.1834 19.9632 11.1834 19.9506 11.1957 19.9506C11.2081 19.9379 11.2327 19.9252 11.2451 19.9252C11.2574 19.9252 11.2574 19.9126 11.2697 19.9126C11.2944 19.8999 11.319 19.8873 11.3314 19.8873C11.356 19.8746 11.3807 19.8746 11.4053 19.862H11.4177C11.4423 19.862 11.467 19.8493 11.4917 19.8493C11.5163 19.8493 11.5533 19.8367 11.578 19.8367C11.5903 19.8367 11.615 19.8367 11.6273 19.8367C11.6396 19.8367 11.652 19.8367 11.6643 19.8367C11.6766 19.8367 11.6889 19.8367 11.7013 19.8367C11.7136 19.8367 11.7259 19.8367 11.7383 19.8367C11.7506 19.8367 11.7506 19.8367 11.7629 19.8367L12.2562 19.9885C12.2315 19.9759 12.2068 19.9759 12.1698 19.9632C12.1575 19.9632 12.1575 19.9632 12.1452 19.9632C12.1328 19.9632 12.1205 19.9632 12.1082 19.9632C12.0959 19.9632 12.0835 19.9632 12.0712 19.9632C12.0589 19.9632 12.0465 19.9632 12.0342 19.9632C12.0219 19.9632 11.9972 19.9632 11.9849 19.9632C11.9602 19.9632 11.9232 19.9632 11.8986 19.9759C11.8739 19.9759 11.8492 19.9885 11.8246 19.9885H11.8123C11.7876 20.0012 11.7629 20.0012 11.7383 20.0138C11.7136 20.0265 11.689 20.0265 11.6766 20.0391C11.6643 20.0391 11.6643 20.0518 11.652 20.0518C11.6396 20.0644 11.615 20.0644 11.6026 20.0771C11.5903 20.0771 11.5903 20.0897 11.578 20.0897C11.5656 20.1024 11.541 20.1151 11.5287 20.1277L11.5163 20.1404C11.504 20.1404 11.504 20.153 11.4917 20.1657C11.4793 20.1783 11.4547 20.191 11.4423 20.2036C11.4177 20.2163 11.4053 20.2416 11.3807 20.2669C11.3807 20.2669 11.3807 20.2796 11.3684 20.2796C11.356 20.2922 11.3437 20.3175 11.3314 20.3302C11.3067 20.3555 11.2944 20.3934 11.2697 20.4188C11.2697 20.4314 11.2574 20.4314 11.2574 20.4441C11.2451 20.4694 11.2327 20.4947 11.2204 20.52C11.2204 20.5326 11.2081 20.5453 11.2081 20.5579C11.2081 20.5706 11.1957 20.5706 11.1957 20.5833C11.1834 20.5959 11.1834 20.6212 11.1711 20.6339C11.1711 20.6465 11.1711 20.6465 11.1587 20.6592C11.1587 20.6718 11.1464 20.6845 11.1464 20.6971C11.1464 20.7098 11.1341 20.7351 11.1341 20.7478C11.1341 20.7731 11.1217 20.7857 11.1217 20.811C11.1217 20.8237 11.1217 20.8237 11.1217 20.8363C11.1217 20.8616 11.1217 20.8996 11.1217 20.9249C11.1217 20.9502 11.1217 20.9629 11.1217 20.9882C11.1217 21.0008 11.1217 21.0008 11.1217 21.0135C11.1217 21.0261 11.1217 21.0388 11.1217 21.0641C11.1217 21.0768 11.1217 21.0768 11.1217 21.0894C11.1217 21.1021 11.1217 21.1274 11.1341 21.14V21.1527C11.1341 21.178 11.1464 21.1906 11.1464 21.216V21.2286C11.1464 21.2413 11.1587 21.2666 11.1587 21.2792C11.1587 21.2919 11.1711 21.2919 11.1711 21.3045C11.1711 21.3172 11.1834 21.3298 11.1834 21.3425C11.1834 21.3551 11.1957 21.3678 11.1957 21.3805C11.1957 21.3931 11.2081 21.4058 11.2081 21.4058C11.2204 21.4184 11.2204 21.4311 11.2327 21.4564L11.2451 21.469C11.2574 21.4943 11.282 21.5196 11.2944 21.545C11.3067 21.5576 11.3067 21.5703 11.319 21.5703L11.3314 21.5829C11.3437 21.5956 11.356 21.6082 11.3684 21.6209C11.3807 21.6335 11.4053 21.6462 11.4177 21.6588L11.43 21.6715C11.4423 21.6841 11.4547 21.6841 11.467 21.6968C11.4793 21.6968 11.4793 21.7095 11.4917 21.7095C11.504 21.7221 11.5163 21.7221 11.5287 21.7348C11.541 21.7348 11.541 21.7474 11.5533 21.7474C11.5656 21.7601 11.578 21.7601 11.5903 21.7601C11.5903 21.7601 11.6026 21.7601 11.6026 21.7727C11.6273 21.7854 11.6396 21.7854 11.6643 21.798L11.1094 21.6082Z" fill="url(#paint13_linear_6973_112402)"/>
<path d="M11.936 19.9379C11.4551 19.9505 11.0605 20.3934 11.0605 20.9122C11.0605 21.431 11.4428 21.836 11.9237 21.8233C12.4046 21.8106 12.7991 21.3678 12.7991 20.8489C12.7991 20.3301 12.4169 19.9126 11.936 19.9379Z" fill="url(#paint14_radial_6973_112402)"/>
<path d="M11.972 20.3682C11.75 20.3808 11.5527 20.6086 11.5527 20.8996C11.5527 21.178 11.7377 21.4058 11.9596 21.3931C12.1816 21.3805 12.3789 21.1527 12.3789 20.8617C12.3789 20.5833 12.1939 20.3555 11.972 20.3682Z" fill="#5E5E5E"/>
<path fill-rule="evenodd" clip-rule="evenodd" d="M7.03473 2.48015C7.10113 2.54478 7.13873 2.63456 7.13873 2.72847V17.0148C7.13873 17.1968 6.99995 17.3469 6.82287 17.3565L2.8648 17.5716C2.77342 17.5766 2.68406 17.5428 2.61767 17.4782C2.55127 17.4136 2.51367 17.3238 2.51367 17.2299V2.94359C2.51367 2.76161 2.65245 2.61145 2.82952 2.60183L6.7876 2.38671C6.87898 2.38174 6.96834 2.41553 7.03473 2.48015ZM3.18065 3.26818V16.869L6.47175 16.6902V3.08931L3.18065 3.26818Z" fill="url(#paint15_linear_6973_112402)"/>
<mask id="mask0_6973_112402" style="mask-type:luminance" maskUnits="userSpaceOnUse" x="0" y="6" width="13" height="15">
<path d="M1.68812 7.10663L8.27259 6.79028C8.32191 6.79028 8.37123 6.79028 8.42055 6.79028L11.7251 7.06867C12.317 7.11929 12.7855 7.6381 12.7855 8.24549V19.4948C12.7855 20.1275 12.3046 20.6464 11.6881 20.6717L6.22573 20.9374C5.33794 20.9754 4.45015 20.9627 3.56235 20.8868L1.5155 20.7096C0.923635 20.659 0.455078 20.1402 0.455078 19.5328V8.4353C0.455078 7.72668 0.997618 7.14459 1.68812 7.10663Z" fill="white"/>
</mask>
<g mask="url(#mask0_6973_112402)">
<path d="M1.68812 7.10663L8.27259 6.79028C8.32191 6.79028 8.37123 6.79028 8.42055 6.79028L11.7251 7.06867C12.317 7.11929 12.7855 7.6381 12.7855 8.24549V19.4948C12.7855 20.1275 12.3046 20.6464 11.6881 20.6717L6.22573 20.9374C5.33794 20.9754 4.45015 20.9627 3.56235 20.8868L1.5155 20.7096C0.923635 20.659 0.455078 20.1402 0.455078 19.5328V8.4353C0.455078 7.72668 0.997618 7.14459 1.68812 7.10663Z" fill="url(#paint16_linear_6973_112402)"/>
</g>
<mask id="mask1_6973_112402" style="mask-type:luminance" maskUnits="userSpaceOnUse" x="0" y="6" width="13" height="15">
<path d="M1.68812 7.10663L8.27259 6.79028C8.32191 6.79028 8.37123 6.79028 8.42055 6.79028L11.7251 7.06867C12.317 7.11929 12.7855 7.6381 12.7855 8.24549V19.4948C12.7855 20.1275 12.3046 20.6464 11.6881 20.6717L6.22573 20.9374C5.33794 20.9754 4.45015 20.9627 3.56235 20.8868L1.5155 20.7096C0.923635 20.659 0.455078 20.1402 0.455078 19.5328V8.4353C0.455078 7.72668 0.997618 7.14459 1.68812 7.10663Z" fill="white"/>
</mask>
<g mask="url(#mask1_6973_112402)">
<path d="M3.35309 20.4692L1.46653 20.1782C0.960981 20.1402 0.566406 19.6973 0.566406 19.1785V8.73901C0.566406 8.15693 1.05962 7.68873 1.62683 7.73935L3.57504 8.11897C4.08059 8.15693 4.47516 8.59982 4.47516 9.11863L4.41351 19.4696C4.41351 20.0516 3.92029 20.5072 3.35309 20.4692Z" fill="url(#paint17_linear_6973_112402)"/>
</g>
<mask id="mask2_6973_112402" style="mask-type:luminance" maskUnits="userSpaceOnUse" x="0" y="6" width="13" height="15">
<path d="M1.68812 7.10663L8.27259 6.79028C8.32191 6.79028 8.37123 6.79028 8.42055 6.79028L11.7251 7.06867C12.317 7.11929 12.7855 7.6381 12.7855 8.24549V19.4948C12.7855 20.1275 12.3046 20.6464 11.6881 20.6717L6.22573 20.9374C5.33794 20.9754 4.45015 20.9627 3.56235 20.8868L1.5155 20.7096C0.923635 20.659 0.455078 20.1402 0.455078 19.5328V8.4353C0.455078 7.72668 0.997618 7.14459 1.68812 7.10663Z" fill="white"/>
</mask>
<g mask="url(#mask2_6973_112402)">
<path d="M0.455078 8.43534V19.5328C0.455078 20.1529 0.911305 20.659 1.5155 20.7097L3.56235 20.8868C4.45015 20.9627 5.33794 20.9754 6.22573 20.9374L11.6881 20.6717C12.3046 20.6464 12.7855 20.1276 12.7855 19.4949V8.25818C12.7855 7.63814 12.3293 7.13198 11.7251 7.08137L8.42055 6.80298C8.37123 6.80298 8.32191 6.80298 8.27259 6.80298L1.68812 7.11933C0.997618 7.14464 0.455078 7.72672 0.455078 8.43534ZM11.3059 7.29648L4.89404 7.60018H4.88171L1.9224 7.3471C1.7991 7.33444 1.81143 7.15729 1.9224 7.14464L8.33424 6.84094H8.34657L11.3059 7.09402C11.4292 7.11933 11.4292 7.29648 11.3059 7.29648ZM4.52413 9.39704C4.52413 8.71372 5.04201 8.15695 5.70785 8.11899L11.1086 7.85326C11.8238 7.81529 12.4156 8.39738 12.4156 9.1313V18.9508C12.4156 19.6341 11.8977 20.1909 11.2319 20.2288L5.83116 20.4945C5.11599 20.5325 4.52413 19.9504 4.52413 19.2165V9.39704ZM0.578383 9.00476C0.578383 8.42268 1.0716 7.95449 1.6388 8.0051L3.45138 8.15695C3.95693 8.19491 4.3515 8.6378 4.3515 9.15661V19.343C4.3515 19.9251 3.85828 20.3933 3.29108 20.3427L1.47851 20.1909C0.972957 20.1529 0.578383 19.71 0.578383 19.1912V9.00476Z" fill="url(#paint18_linear_6973_112402)"/>
</g>
<path d="M2.85951 20.8363C2.58824 20.6212 2.41561 20.2542 2.41561 19.8872V8.65055C2.41561 7.92927 2.97048 7.34719 3.67332 7.30923L10.64 7.00553L10.3688 6.98022L2.93349 7.30923C2.23065 7.34719 1.67578 7.92927 1.67578 8.65055V19.8746C1.67578 20.2542 1.82375 20.5453 2.09502 20.773L2.85951 20.8363Z" fill="url(#paint19_linear_6973_112402)"/>
<path fill-rule="evenodd" clip-rule="evenodd" d="M7.89334 2.67882C7.90642 2.94532 7.70651 3.17223 7.44683 3.18565L2.30503 3.45138C2.04535 3.4648 1.82423 3.25965 1.81115 2.99316C1.79808 2.72666 1.99799 2.49975 2.25767 2.48633L7.39947 2.22059C7.65915 2.20717 7.88026 2.41233 7.89334 2.67882Z" fill="url(#paint20_linear_6973_112402)"/>
<defs>
<linearGradient id="paint0_linear_6973_112402" x1="17.1113" y1="14.0789" x2="20.6664" y2="14.0549" gradientUnits="userSpaceOnUse">
<stop stop-color="#232323"/>
<stop offset="0.7" stop-color="#505050"/>
<stop offset="1" stop-color="#232323"/>
</linearGradient>
<linearGradient id="paint1_linear_6973_112402" x1="14.007" y1="14.2093" x2="18.041" y2="14.1821" gradientUnits="userSpaceOnUse">
<stop stop-color="#232323"/>
<stop offset="0.3" stop-color="#505050"/>
<stop offset="1" stop-color="#232323"/>
</linearGradient>
<linearGradient id="paint2_linear_6973_112402" x1="15.2175" y1="20.9966" x2="15.1725" y2="13.5208" gradientUnits="userSpaceOnUse">
<stop stop-color="#8B68D6"/>
<stop offset="0.7928" stop-color="#BFADF4"/>
<stop offset="1" stop-color="#8B68D6"/>
</linearGradient>
<radialGradient id="paint3_radial_6973_112402" cx="0" cy="0" r="1" gradientUnits="userSpaceOnUse" gradientTransform="translate(21.449 15.6853) scale(5.82894 5.98186)">
<stop stop-color="#BFADF4"/>
<stop offset="1" stop-color="#8B68D6"/>
</radialGradient>
<linearGradient id="paint4_linear_6973_112402" x1="13.2153" y1="20.9788" x2="13.2153" y2="16.7278" gradientUnits="userSpaceOnUse">
<stop stop-color="#8B68D6"/>
<stop offset="1" stop-color="#D2C7FF"/>
</linearGradient>
<linearGradient id="paint5_linear_6973_112402" x1="10.9169" y1="15.9225" x2="17.291" y2="15.9225" gradientUnits="userSpaceOnUse">
<stop stop-color="#232323"/>
<stop offset="0.3" stop-color="#505050"/>
<stop offset="1" stop-color="#232323"/>
</linearGradient>
<linearGradient id="paint6_linear_6973_112402" x1="15.5918" y1="12.1181" x2="15.4832" y2="10.901" gradientUnits="userSpaceOnUse">
<stop stop-color="#805ACB"/>
<stop offset="1" stop-color="#AA90EA"/>
</linearGradient>
<linearGradient id="paint7_linear_6973_112402" x1="15.0095" y1="16.0782" x2="17.6849" y2="16.0782" gradientUnits="userSpaceOnUse">
<stop stop-color="#232323"/>
<stop offset="0.3" stop-color="#505050"/>
<stop offset="1" stop-color="#232323"/>
</linearGradient>
<linearGradient id="paint8_linear_6973_112402" x1="1.16041" y1="19.2905" x2="0.619319" y2="21.1887" gradientUnits="userSpaceOnUse">
<stop stop-color="#232323"/>
<stop offset="0.5127" stop-color="#505050"/>
<stop offset="1" stop-color="#232323"/>
</linearGradient>
<radialGradient id="paint9_radial_6973_112402" cx="0" cy="0" r="1" gradientUnits="userSpaceOnUse" gradientTransform="translate(1.56166 20.3833) rotate(180) scale(0.949889 0.974809)">
<stop stop-color="#232323"/>
<stop offset="0.7047" stop-color="#505050"/>
<stop offset="1" stop-color="#232323"/>
</radialGradient>
<linearGradient id="paint10_linear_6973_112402" x1="1.91075" y1="20.3831" x2="1.2137" y2="20.3831" gradientUnits="userSpaceOnUse">
<stop/>
<stop offset="0.9487" stop-color="#373533"/>
</linearGradient>
<linearGradient id="paint11_linear_6973_112402" x1="4.30388" y1="20.0406" x2="3.76279" y2="21.9387" gradientUnits="userSpaceOnUse">
<stop stop-color="#232323"/>
<stop offset="0.5127" stop-color="#505050"/>
<stop offset="1" stop-color="#232323"/>
</linearGradient>
<radialGradient id="paint12_radial_6973_112402" cx="0" cy="0" r="1" gradientUnits="userSpaceOnUse" gradientTransform="translate(4.70514 21.1334) rotate(180) scale(0.949889 0.974809)">
<stop stop-color="#232323"/>
<stop offset="0.7047" stop-color="#505050"/>
<stop offset="1" stop-color="#232323"/>
</radialGradient>
<linearGradient id="paint13_linear_6973_112402" x1="11.5562" y1="19.8682" x2="11.0521" y2="21.6363" gradientUnits="userSpaceOnUse">
<stop stop-color="#232323"/>
<stop offset="0.5127" stop-color="#505050"/>
<stop offset="1" stop-color="#232323"/>
</linearGradient>
<radialGradient id="paint14_radial_6973_112402" cx="0" cy="0" r="1" gradientUnits="userSpaceOnUse" gradientTransform="translate(11.9468 20.8768) rotate(-179.999) scale(0.893845 1.03583)">
<stop stop-color="#232323"/>
<stop offset="0.7047" stop-color="#505050"/>
<stop offset="1" stop-color="#232323"/>
</radialGradient>
<linearGradient id="paint15_linear_6973_112402" x1="4.8246" y1="2.49603" x2="5.62107" y2="17.4175" gradientUnits="userSpaceOnUse">
<stop stop-color="#232323"/>
<stop offset="0.1835" stop-color="#505050"/>
<stop offset="0.3818" stop-color="#232323"/>
<stop offset="1" stop-color="#232323"/>
</linearGradient>
<linearGradient id="paint16_linear_6973_112402" x1="11.703" y1="13.7461" x2="3.86311" y2="13.9525" gradientUnits="userSpaceOnUse">
<stop stop-color="#835AD1"/>
<stop offset="1" stop-color="#AD94ED"/>
</linearGradient>
<linearGradient id="paint17_linear_6973_112402" x1="8.56377" y1="14.2379" x2="0.0256333" y2="14.0616" gradientUnits="userSpaceOnUse">
<stop stop-color="#835AD1"/>
<stop offset="1" stop-color="#AD94ED"/>
</linearGradient>
<linearGradient id="paint18_linear_6973_112402" x1="32.9876" y1="13.8786" x2="-9.95032" y2="13.8786" gradientUnits="userSpaceOnUse">
<stop stop-color="#835AD1"/>
<stop offset="1" stop-color="#AD94ED"/>
</linearGradient>
<linearGradient id="paint19_linear_6973_112402" x1="10.6457" y1="13.9063" x2="1.67229" y2="13.9063" gradientUnits="userSpaceOnUse">
<stop stop-color="#2A2A28"/>
<stop offset="0.0448723" stop-color="#3B3B3B"/>
<stop offset="0.2467" stop-color="#212121"/>
<stop offset="0.4555" stop-color="#0F0F0F"/>
<stop offset="0.6732" stop-color="#040404"/>
<stop offset="0.9116"/>
<stop offset="1" stop-color="#585857"/>
</linearGradient>
<linearGradient id="paint20_linear_6973_112402" x1="4.82443" y1="2.34318" x2="4.87729" y2="3.3261" gradientUnits="userSpaceOnUse">
<stop stop-color="#353534"/>
<stop offset="0.3221" stop-color="#424242"/>
<stop offset="1" stop-color="#161616"/>
</linearGradient>
</defs>
</svg>
